<svg width="210" height="205" viewBox="0 0 210 205" fill="none" xmlns="http://www.w3.org/2000/svg">
<g clip-path="url(#clip0_401_2631)">
<path d="M133.317 46.1039H76.7307C75.4412 46.1054 74.205 46.6184 73.2932 47.5303C72.3813 48.4421 71.8684 49.6784 71.8668 50.968V176.739L71.2183 176.937L57.3369 181.188C56.679 181.389 55.9684 181.32 55.3611 180.997C54.7538 180.675 54.2994 180.124 54.0977 179.466L12.8068 44.583C12.6059 43.9251 12.6743 43.2143 12.9972 42.6068C13.3201 41.9993 13.8709 41.5449 14.5286 41.3435L35.9199 34.793L97.9338 15.8098L119.325 9.25939C119.65 9.1592 119.993 9.12418 120.332 9.15636C120.671 9.18853 121 9.28727 121.301 9.4469C121.602 9.60654 121.868 9.82394 122.085 10.0867C122.302 10.3494 122.465 10.6523 122.564 10.9781L133.119 45.4553L133.317 46.1039Z" fill="#F2F2F2"/>
<path d="M145.664 45.4556L132.944 3.9026C132.732 3.21025 132.386 2.56639 131.926 2.00781C131.465 1.44923 130.899 0.986888 130.26 0.647194C129.62 0.307499 128.92 0.0971087 128.2 0.0280541C127.479 -0.0410005 126.752 0.0326335 126.06 0.244741L95.9851 9.45099L33.9745 28.4375L3.89972 37.647C2.5026 38.076 1.33278 39.0419 0.647023 40.3326C-0.0387334 41.6233 -0.184398 43.1334 0.24201 44.5314L43.7183 186.542C44.0647 187.671 44.7636 188.659 45.7125 189.361C46.6615 190.063 47.8104 190.442 48.9908 190.443C49.5371 190.444 50.0803 190.362 50.6022 190.2L71.2185 183.89L71.867 183.689V183.011L71.2185 183.209L50.411 189.581C49.1778 189.957 47.8458 189.828 46.7073 189.223C45.5687 188.619 44.7165 187.587 44.3377 186.354L0.864714 44.3401C0.676999 43.7294 0.611576 43.0877 0.672187 42.4518C0.732799 41.8158 0.918251 41.198 1.21793 40.6339C1.51762 40.0697 1.92565 39.5702 2.41865 39.1639C2.91164 38.7576 3.47993 38.4526 4.09097 38.2663L34.1657 29.0568L96.1765 10.0736L126.251 0.864118C126.715 0.722667 127.197 0.650545 127.681 0.650093C128.721 0.652428 129.733 0.987718 130.569 1.60685C131.404 2.22598 132.02 3.09643 132.325 4.09068L144.987 45.4556L145.188 46.1041H145.862L145.664 45.4556Z" fill="#3F3D56"/>
<path d="M39.7801 41.4494C39.1551 41.449 38.5467 41.2483 38.0442 40.8767C37.5417 40.5051 37.1714 39.9823 36.9878 39.3849L32.8113 25.7419C32.699 25.3754 32.6601 24.9905 32.6967 24.6089C32.7332 24.2274 32.8446 23.8568 33.0244 23.5183C33.2042 23.1799 33.4489 22.8801 33.7446 22.6362C34.0402 22.3924 34.381 22.2091 34.7475 22.097L91.7968 4.63013C92.5368 4.40428 93.3363 4.48131 94.0196 4.8443C94.703 5.2073 95.2144 5.8266 95.4416 6.5663L99.6182 20.2094C99.8439 20.9495 99.7668 21.749 99.4038 22.4323C99.0409 23.1157 98.4217 23.6271 97.6821 23.8545L40.6327 41.3214C40.3564 41.4061 40.0691 41.4493 39.7801 41.4494Z" fill="#6C63FF"/>
<path d="M61.6585 14.5778C65.2401 14.5778 68.1436 11.6741 68.1436 8.09225C68.1436 4.51037 65.2401 1.60669 61.6585 1.60669C58.0768 1.60669 55.1733 4.51037 55.1733 8.09225C55.1733 11.6741 58.0768 14.5778 61.6585 14.5778Z" fill="#6C63FF"/>
<path d="M61.6583 12.1991C63.9263 12.1991 65.7649 10.3604 65.7649 8.09221C65.7649 5.82405 63.9263 3.98535 61.6583 3.98535C59.3903 3.98535 57.5518 5.82405 57.5518 8.09221C57.5518 10.3604 59.3903 12.1991 61.6583 12.1991Z" fill="white"/>
<path d="M195.408 188.786H85.8099C85.0792 188.785 84.3786 188.495 83.8619 187.978C83.3452 187.461 83.0546 186.761 83.0537 186.03V54.6973C83.0545 53.9665 83.3452 53.2659 83.8619 52.7491C84.3786 52.2324 85.0792 51.9417 85.8099 51.9409H195.408C196.139 51.9418 196.84 52.2324 197.356 52.7492C197.873 53.2659 198.164 53.9665 198.165 54.6973V186.03C198.164 186.761 197.873 187.461 197.356 187.978C196.84 188.495 196.139 188.785 195.408 188.786Z" fill="#E6E6E6"/>
<path d="M144.987 45.4553H76.7309C75.2695 45.4574 73.8686 46.0389 72.8353 47.0722C71.802 48.1056 71.2206 49.5066 71.2185 50.968V183.209L71.867 183.011V50.968C71.8686 49.6785 72.3815 48.4422 73.2933 47.5303C74.2051 46.6184 75.4414 46.1054 76.7309 46.1039H145.188L144.987 45.4553ZM204.488 45.4553H76.7309C75.2695 45.4574 73.8686 46.0389 72.8353 47.0722C71.802 48.1056 71.2206 49.5066 71.2185 50.968V199.487C71.2206 200.949 71.802 202.35 72.8353 203.383C73.8686 204.417 75.2695 204.998 76.7309 205H204.488C205.949 204.998 207.35 204.417 208.383 203.383C209.417 202.35 209.998 200.949 210 199.487V50.968C209.998 49.5066 209.417 48.1056 208.383 47.0722C207.35 46.0389 205.949 45.4574 204.488 45.4553ZM209.352 199.487C209.35 200.777 208.837 202.013 207.925 202.925C207.013 203.837 205.777 204.35 204.488 204.352H76.7309C75.4414 204.35 74.2051 203.837 73.2933 202.925C72.3815 202.013 71.8686 200.777 71.867 199.487V50.968C71.8686 49.6785 72.3815 48.4422 73.2933 47.5303C74.2051 46.6184 75.4414 46.1054 76.7309 46.1039H204.488C205.777 46.1054 207.013 46.6184 207.925 47.5303C208.837 48.4422 209.35 49.6785 209.352 50.968V199.487Z" fill="#3F3D56"/>
<path d="M170.441 59.7234H110.778C110.004 59.7225 109.262 59.4148 108.715 58.8676C108.168 58.3205 107.86 57.5787 107.859 56.8049V42.5367C107.86 41.7629 108.168 41.0211 108.715 40.4739C109.262 39.9268 110.004 39.619 110.778 39.6182H170.441C171.215 39.619 171.956 39.9268 172.503 40.4739C173.05 41.0211 173.358 41.7629 173.359 42.5367V56.8049C173.358 57.5787 173.05 58.3205 172.503 58.8676C171.956 59.4148 171.215 59.7225 170.441 59.7234Z" fill="#6C63FF"/>
<path d="M140.609 40.591C144.191 40.591 147.094 37.6873 147.094 34.1054C147.094 30.5236 144.191 27.6199 140.609 27.6199C137.028 27.6199 134.124 30.5236 134.124 34.1054C134.124 37.6873 137.028 40.591 140.609 40.591Z" fill="#6C63FF"/>
<path d="M140.609 38.0559C142.791 38.0559 144.559 36.2873 144.559 34.1056C144.559 31.9239 142.791 30.1553 140.609 30.1553C138.428 30.1553 136.659 31.9239 136.659 34.1056C136.659 36.2873 138.428 38.0559 140.609 38.0559Z" fill="white"/>
</g>
<defs>
<clipPath id="clip0_401_2631">
<rect width="210" height="205" fill="white"/>
</clipPath>
</defs>
</svg>
