<svg width="26" height="26" viewBox="0 0 26 26" fill="none" xmlns="http://www.w3.org/2000/svg">
<g clip-path="url(#clip0_441_314)">
<path d="M21.2812 6.62539C22.0396 7.05656 22.5054 7.86364 22.5 8.73572V16.6267C22.5 17.5031 22.0201 18.3113 21.2455 18.7371L13.933 23.3629C13.5705 23.5619 13.1636 23.6663 12.75 23.6663C12.3364 23.6663 11.9295 23.5619 11.567 23.3629L4.2545 18.7371C3.87551 18.5299 3.55913 18.2248 3.33845 17.8536C3.11776 17.4823 3.00087 17.0586 3 16.6267V8.73464C3 7.85822 3.47992 7.05114 4.2545 6.62539L11.567 2.31372C11.9402 2.10793 12.3595 2 12.7858 2C13.212 2 13.6313 2.10793 14.0045 2.31372L21.317 6.62539H21.2812Z" fill="#064580"/>
<g clip-path="url(#clip1_441_314)">
<path d="M8.21283 9.66502L12.3767 7.85144C12.4454 7.82199 12.5193 7.8066 12.594 7.80616C12.6688 7.80573 12.7429 7.82027 12.8119 7.84892C12.8809 7.87757 12.9436 7.91975 12.996 7.97298C13.0485 8.02621 13.0898 8.08941 13.1175 8.15886L15.9898 15.1017C16.0495 15.2425 16.0516 15.4011 15.9955 15.5433C15.9394 15.6856 15.8297 15.8002 15.69 15.8624L11.5267 17.6759C11.458 17.7055 11.384 17.7209 11.3092 17.7214C11.2344 17.7219 11.1603 17.7074 11.0911 17.6787C11.022 17.6501 10.9594 17.6079 10.9068 17.5546C10.8543 17.5013 10.813 17.438 10.7853 17.3685L7.91299 10.4251C7.85329 10.2843 7.85126 10.1257 7.90734 9.98345C7.96342 9.84118 8.07312 9.72721 8.21283 9.66502Z" stroke="#FBFAFE" stroke-width="1.2" stroke-linecap="round" stroke-linejoin="round"/>
<path d="M14.8604 7.80005H15.4437C15.5984 7.80005 15.7468 7.86151 15.8562 7.9709C15.9656 8.0803 16.027 8.22867 16.027 8.38338V10.425" stroke="#FBFAFE" stroke-width="1.2" stroke-linecap="round" stroke-linejoin="round"/>
<path d="M17.7772 8.96655C17.9312 9.03189 18.0805 9.09314 18.2252 9.1503C18.3676 9.21073 18.4802 9.32524 18.5381 9.46866C18.5961 9.61207 18.5947 9.77264 18.5343 9.91505L17.1938 13.0499" stroke="#FBFAFE" stroke-width="1.2" stroke-linecap="round" stroke-linejoin="round"/>
</g>
</g>
<defs>
<clipPath id="clip0_441_314">
<rect width="26" height="26" fill="white"/>
</clipPath>
<clipPath id="clip1_441_314">
<rect width="14" height="14" fill="white" transform="translate(6 5)"/>
</clipPath>
</defs>
</svg>
