<svg width="17" height="17" viewBox="0 0 17 17" fill="none" xmlns="http://www.w3.org/2000/svg">
<g clip-path="url(#clip0_6_9412)">
<rect width="16" height="16" transform="translate(0.5 0.400024)" fill="white" fill-opacity="0.01"/>
<path d="M4.04607 10.0696L3.48911 12.1488L1.45344 12.1919C0.845075 11.0635 0.5 9.7725 0.5 8.40057C0.5 7.07393 0.822637 5.82288 1.39453 4.72131H1.39497L3.20729 5.05358L4.00119 6.85502C3.83503 7.33944 3.74446 7.85946 3.74446 8.40057C3.74452 8.98784 3.8509 9.55052 4.04607 10.0696Z" fill="#FBBB00"/>
<path d="M16.3602 6.90588C16.4521 7.38984 16.5 7.88964 16.5 8.40044C16.5 8.97321 16.4398 9.53192 16.3251 10.0708C15.9356 11.9048 14.918 13.5061 13.5083 14.6394L13.5078 14.6389L11.2251 14.5224L10.902 12.5057C11.8375 11.9571 12.5685 11.0986 12.9536 10.0708H8.67559V6.90588H13.016H16.3602Z" fill="#518EF8"/>
<path d="M13.5091 14.6387L13.5096 14.6392C12.1385 15.7412 10.3969 16.4005 8.50104 16.4005C5.45434 16.4005 2.80546 14.6976 1.45419 12.1916L4.04682 10.0693C4.72244 11.8725 6.46184 13.156 8.50104 13.156C9.37754 13.156 10.1987 12.9191 10.9033 12.5055L13.5091 14.6387Z" fill="#28B446"/>
<path d="M13.6062 2.24184L11.0145 4.36367C10.2852 3.90784 9.42318 3.64452 8.49965 3.64452C6.41429 3.64452 4.64235 4.98697 4.00058 6.85476L1.39433 4.72106H1.39389C2.72538 2.15393 5.40766 0.400024 8.49965 0.400024C10.4408 0.400024 12.2207 1.09149 13.6062 2.24184Z" fill="#F14336"/>
</g>
<defs>
<clipPath id="clip0_6_9412">
<rect width="16" height="16" fill="white" transform="translate(0.5 0.400024)"/>
</clipPath>
</defs>
</svg>
