<svg width="1379" height="1313" viewBox="0 0 1379 1313" fill="none" xmlns="http://www.w3.org/2000/svg">
<path d="M1293.69 1244.61C1293.69 1247.27 1291.52 1249.43 1288.84 1249.43C1286.17 1249.43 1284 1247.27 1284 1244.61C1284 1241.95 1286.17 1239.78 1288.84 1239.78C1291.52 1239.78 1293.69 1241.94 1293.69 1244.61Z" stroke="#4D2C5E" stroke-opacity="0.1" stroke-width="2" stroke-miterlimit="10" stroke-linecap="round" stroke-linejoin="round"/>
<path d="M1340.68 1286.45C1343.35 1286.45 1345.52 1284.29 1345.52 1281.63C1345.52 1278.96 1343.35 1276.8 1340.68 1276.8C1338 1276.8 1335.84 1278.96 1335.84 1281.63C1335.84 1284.29 1338 1286.45 1340.68 1286.45Z" stroke="#4D2C5E" stroke-opacity="0.1" stroke-width="2" stroke-miterlimit="10" stroke-linecap="round" stroke-linejoin="round"/>
<path d="M1322.44 1271.71C1328.15 1271.71 1332.77 1267.1 1332.77 1261.42C1332.77 1255.74 1328.15 1251.13 1322.44 1251.13C1316.74 1251.13 1312.11 1255.74 1312.11 1261.42C1312.11 1267.1 1316.74 1271.71 1322.44 1271.71Z" stroke="#4D2C5E" stroke-opacity="0.1" stroke-width="2" stroke-miterlimit="10" stroke-linecap="round" stroke-linejoin="round"/>
<path d="M1340.44 1261.42L1337 1267.42L1335.17 1274.1L1328.47 1275.91L1322.44 1279.35L1316.42 1275.91L1309.71 1274.1L1307.89 1267.42L1304.44 1261.42L1307.89 1255.41L1309.71 1248.74L1316.42 1246.92L1322.44 1243.48L1328.47 1246.92L1335.17 1248.74L1337 1255.41L1340.44 1261.42Z" stroke="#4D2C5E" stroke-opacity="0.1" stroke-width="2" stroke-miterlimit="10" stroke-linecap="round" stroke-linejoin="round"/>
<path d="M1335.84 1281.63C1335.84 1278.96 1338.01 1276.8 1340.68 1276.8C1342.12 1276.8 1343.42 1277.44 1344.31 1278.44C1347.99 1273.74 1350.2 1267.84 1350.2 1261.41C1350.2 1246.14 1337.77 1233.76 1322.44 1233.76C1307.11 1233.76 1294.68 1246.14 1294.68 1261.41C1294.68 1276.68 1307.11 1289.06 1322.44 1289.06C1327.83 1289.06 1332.85 1287.53 1337.11 1284.88C1336.33 1284.03 1335.84 1282.89 1335.84 1281.63Z" stroke="#4D2C5E" stroke-opacity="0.1" stroke-width="2" stroke-miterlimit="10" stroke-linecap="round" stroke-linejoin="round"/>
<path d="M1322.44 1224C1309.49 1224 1298.07 1230.53 1291.32 1240.47C1292.73 1241.31 1293.69 1242.85 1293.69 1244.61C1293.69 1247.28 1291.52 1249.44 1288.84 1249.44C1288.18 1249.44 1287.56 1249.3 1286.99 1249.07C1285.63 1252.94 1284.89 1257.09 1284.89 1261.42C1284.89 1282.08 1301.71 1298.84 1322.45 1298.84C1343.19 1298.84 1360.01 1282.08 1360.01 1261.42C1360.01 1240.75 1343.19 1224 1322.44 1224Z" stroke="#4D2C5E" stroke-opacity="0.1" stroke-width="2" stroke-miterlimit="10" stroke-linecap="round" stroke-linejoin="round"/>
<path d="M1311.84 80.2431L1288.54 72.3585C1286.07 71.5274 1284.76 68.8615 1285.59 66.4084C1286.43 63.9552 1289.1 62.6456 1291.56 63.4766L1314.86 71.3612C1317.33 72.1923 1318.64 74.8581 1317.81 77.3046C1316.97 79.7644 1314.3 81.0808 1311.84 80.2431Z" stroke="#4D2C5E" stroke-opacity="0.1" stroke-width="3" stroke-miterlimit="10"/>
<path d="M1308.78 89.2312L1285.47 81.3466C1283.01 80.5156 1281.69 77.8497 1282.53 75.4032C1283.36 72.95 1286.04 71.6403 1288.5 72.4713L1311.81 80.3494C1314.27 81.1804 1315.59 83.8463 1314.75 86.2994C1313.91 88.7526 1311.24 90.0622 1308.78 89.2312Z" stroke="#4D2C5E" stroke-opacity="0.1" stroke-width="3" stroke-miterlimit="10"/>
<path d="M1288.06 39.2309C1288.09 39.3106 1288.11 39.3838 1288.13 39.4636C1288.66 41.1189 1291.73 51.6096 1290.44 63.2505L1315.45 71.4676C1321.37 61.3558 1330.11 54.7542 1331.52 53.7304C1331.58 53.6838 1331.65 53.6373 1331.71 53.5908C1332.39 53.1055 1333.05 52.5869 1333.69 52.0351C1337.46 48.7975 1340.42 44.5361 1342.09 39.4968C1347.01 24.6582 1338.92 8.65622 1324.02 3.75657C1309.12 -1.14309 1293.06 6.91442 1288.14 21.753C1286.47 26.7989 1286.3 31.9778 1287.39 36.811C1287.58 37.622 1287.8 38.4331 1288.06 39.2309Z" stroke="#4D2C5E" stroke-opacity="0.1" stroke-width="3" stroke-miterlimit="10"/>
<path d="M1286.75 81.8918C1286.47 86.8114 1289.51 91.4983 1294.44 93.1205C1299.29 94.716 1304.47 92.8213 1307.22 88.8125L1286.75 81.8918Z" stroke="#4D2C5E" stroke-opacity="0.1" stroke-width="3" stroke-miterlimit="10"/>
<path d="M1298.27 65.6903L1305.7 43.2662C1306.44 41.059 1305.23 38.679 1303.01 37.9477C1300.8 37.2164 1298.41 38.4198 1297.67 40.6269C1296.94 42.8341 1298.15 45.2141 1300.36 45.9454L1309.28 48.8772" stroke="#4D2C5E" stroke-opacity="0.1" stroke-width="3" stroke-miterlimit="10"/>
<path d="M1308.07 68.9146L1315.5 46.4906C1316.23 44.2834 1318.62 43.0867 1320.84 43.8114C1323.05 44.5427 1324.26 46.9227 1323.53 49.1299C1322.79 51.337 1320.4 52.5337 1318.19 51.8091L1309.27 48.8772" stroke="#4D2C5E" stroke-opacity="0.1" stroke-width="3" stroke-miterlimit="10"/>
<path d="M1347.37 47.2219L1354.9 49.7017" stroke="#4D2C5E" stroke-opacity="0.1" stroke-width="3" stroke-miterlimit="10" stroke-linecap="round"/>
<path d="M1350.82 37.775L1358.66 36.5983" stroke="#4D2C5E" stroke-opacity="0.1" stroke-width="3" stroke-miterlimit="10" stroke-linecap="round"/>
<path d="M1342.1 55.3259L1347.69 60.9236" stroke="#4D2C5E" stroke-opacity="0.1" stroke-width="3" stroke-miterlimit="10" stroke-linecap="round"/>
<path d="M1277.44 24.2327L1269.91 21.7596" stroke="#4D2C5E" stroke-opacity="0.1" stroke-width="3" stroke-miterlimit="10" stroke-linecap="round"/>
<path d="M1280.32 14.593L1274.73 8.99524" stroke="#4D2C5E" stroke-opacity="0.1" stroke-width="3" stroke-miterlimit="10" stroke-linecap="round"/>
<path d="M1276.84 33.8658L1269 35.0426" stroke="#4D2C5E" stroke-opacity="0.1" stroke-width="3" stroke-miterlimit="10" stroke-linecap="round"/>
<path d="M1075.99 158.291L1006.79 137.698C1001.76 136.202 998.898 130.926 1000.4 125.912L1014.22 79.8075C1015.72 74.7938 1021.02 71.9481 1026.05 73.444L1095.26 94.0362C1100.29 95.5321 1103.15 100.809 1101.65 105.822L1087.83 151.927C1086.32 156.935 1081.02 159.786 1075.99 158.291Z" stroke="#4D2C5E" stroke-opacity="0.1" stroke-width="4" stroke-miterlimit="10" stroke-linecap="round"/>
<path d="M1002.03 120.46L1089.46 146.475" stroke="#4D2C5E" stroke-opacity="0.1" stroke-width="4" stroke-miterlimit="10" stroke-linecap="round"/>
<path d="M1045.96 141.023C1045.58 142.274 1044.26 142.987 1043 142.613C1041.75 142.239 1041.03 140.918 1041.41 139.668C1041.78 138.417 1043.11 137.704 1044.36 138.078C1045.62 138.452 1046.33 139.773 1045.96 141.023Z" fill="#4D2C5E" fill-opacity="0.5"/>
<path d="M1051.2 150.92L1031.6 145.088L1028.96 153.896L1048.56 159.727L1051.2 150.92Z" stroke="#4D2C5E" stroke-opacity="0.1" stroke-width="4" stroke-miterlimit="10" stroke-linecap="round"/>
<path d="M1021.69 152.237L1055.53 162.305" stroke="#4D2C5E" stroke-opacity="0.1" stroke-width="4" stroke-miterlimit="10" stroke-linecap="round"/>
<path d="M640.063 1220.55L636.806 1227.78" stroke="#4D2C5E" stroke-opacity="0.1" stroke-width="4" stroke-miterlimit="10" stroke-linecap="round" stroke-linejoin="round"/>
<path d="M663.181 1230.65L659.923 1237.88" stroke="#4D2C5E" stroke-opacity="0.1" stroke-width="4" stroke-miterlimit="10" stroke-linecap="round" stroke-linejoin="round"/>
<path d="M686.305 1240.75L683.048 1247.98" stroke="#4D2C5E" stroke-opacity="0.1" stroke-width="4" stroke-miterlimit="10" stroke-linecap="round" stroke-linejoin="round"/>
<path d="M624.573 1213.79L622.943 1217.41" stroke="#4D2C5E" stroke-opacity="0.1" stroke-width="4" stroke-miterlimit="10" stroke-linecap="round" stroke-linejoin="round"/>
<path d="M632.308 1217.17L630.68 1220.78" stroke="#4D2C5E" stroke-opacity="0.1" stroke-width="4" stroke-miterlimit="10" stroke-linecap="round" stroke-linejoin="round"/>
<path d="M647.736 1223.91L646.107 1227.53" stroke="#4D2C5E" stroke-opacity="0.1" stroke-width="4" stroke-miterlimit="10" stroke-linecap="round" stroke-linejoin="round"/>
<path d="M655.467 1227.29L653.844 1230.9" stroke="#4D2C5E" stroke-opacity="0.1" stroke-width="4" stroke-miterlimit="10" stroke-linecap="round" stroke-linejoin="round"/>
<path d="M670.9 1234.02L669.27 1237.65" stroke="#4D2C5E" stroke-opacity="0.1" stroke-width="4" stroke-miterlimit="10" stroke-linecap="round" stroke-linejoin="round"/>
<path d="M694.398 1244.29L692.775 1247.91" stroke="#4D2C5E" stroke-opacity="0.1" stroke-width="4" stroke-miterlimit="10" stroke-linecap="round" stroke-linejoin="round"/>
<path d="M678.63 1237.4L677.007 1241.02" stroke="#4D2C5E" stroke-opacity="0.1" stroke-width="4" stroke-miterlimit="10" stroke-linecap="round" stroke-linejoin="round"/>
<path d="M680.657 1302.11L604.99 1205.77L704.857 1248.32L680.657 1302.11Z" stroke="#4D2C5E" stroke-opacity="0.1" stroke-width="4" stroke-miterlimit="10" stroke-linecap="round" stroke-linejoin="round"/>
<path d="M677.21 1271.53L656.51 1245.18L683.827 1256.81L677.21 1271.53Z" stroke="#4D2C5E" stroke-opacity="0.1" stroke-width="4" stroke-miterlimit="10" stroke-linecap="round" stroke-linejoin="round"/>
<path d="M659.774 24.2365L631 38.0945L688.351 156.247L717.124 142.389L659.774 24.2365Z" stroke="#4D2C5E" stroke-opacity="0.1" stroke-width="4" stroke-miterlimit="10" stroke-linecap="round" stroke-linejoin="round"/>
<path d="M666.64 38.4146L652.26 45.3375" stroke="#4D2C5E" stroke-opacity="0.1" stroke-width="4" stroke-miterlimit="10" stroke-linecap="round" stroke-linejoin="round"/>
<path d="M679.93 65.7876L665.54 72.7205" stroke="#4D2C5E" stroke-opacity="0.1" stroke-width="4" stroke-miterlimit="10" stroke-linecap="round" stroke-linejoin="round"/>
<path d="M693.22 93.1605L678.83 100.093" stroke="#4D2C5E" stroke-opacity="0.1" stroke-width="4" stroke-miterlimit="10" stroke-linecap="round" stroke-linejoin="round"/>
<path d="M706.5 120.543L692.12 127.466" stroke="#4D2C5E" stroke-opacity="0.1" stroke-width="4" stroke-miterlimit="10" stroke-linecap="round" stroke-linejoin="round"/>
<path d="M671.04 47.4791L663.85 50.9356" stroke="#4D2C5E" stroke-opacity="0.1" stroke-width="4" stroke-miterlimit="10" stroke-linecap="round" stroke-linejoin="round"/>
<path d="M675.48 56.6334L668.29 60.0998" stroke="#4D2C5E" stroke-opacity="0.1" stroke-width="4" stroke-miterlimit="10" stroke-linecap="round" stroke-linejoin="round"/>
<path d="M684.35 74.9019L677.16 78.3583" stroke="#4D2C5E" stroke-opacity="0.1" stroke-width="4" stroke-miterlimit="10" stroke-linecap="round" stroke-linejoin="round"/>
<path d="M688.79 84.0562L681.6 87.5226" stroke="#4D2C5E" stroke-opacity="0.1" stroke-width="4" stroke-miterlimit="10" stroke-linecap="round" stroke-linejoin="round"/>
<path d="M697.66 102.325L690.47 105.781" stroke="#4D2C5E" stroke-opacity="0.1" stroke-width="4" stroke-miterlimit="10" stroke-linecap="round" stroke-linejoin="round"/>
<path d="M702.11 111.479L694.91 114.945" stroke="#4D2C5E" stroke-opacity="0.1" stroke-width="4" stroke-miterlimit="10" stroke-linecap="round" stroke-linejoin="round"/>
<path d="M40.0008 1166.59L8.77077 1181.2C7.10077 1181.99 5.11082 1181.27 4.32082 1179.61L2.32082 1175.37C1.53082 1173.7 2.2508 1171.72 3.9208 1170.93L35.1508 1156.32C36.8208 1155.53 38.8108 1156.25 39.6008 1157.91L41.6008 1162.16C42.3908 1163.83 41.6708 1165.81 40.0008 1166.59Z" stroke="#4D2C5E" stroke-opacity="0.1" stroke-width="4" stroke-miterlimit="10" stroke-linecap="round"/>
<path d="M52.1307 1199.78L36.8508 1168.08L12.1307 1179.91L27.4108 1211.6L37.0508 1264.64C40.2208 1271.22 48.1507 1273.99 54.7507 1270.83L81.4408 1258.06C88.0508 1254.9 90.8308 1247 87.6608 1240.43L52.1307 1199.78Z" stroke="#4D2C5E" stroke-opacity="0.1" stroke-width="4" stroke-miterlimit="10" stroke-linecap="round"/>
<path d="M31.7507 1235.52C31.7507 1235.52 36.8508 1227.29 50.4108 1227.76C63.9708 1228.23 66.2507 1215.93 66.2507 1215.93" stroke="#4D2C5E" stroke-opacity="0.1" stroke-width="4" stroke-miterlimit="10" stroke-linecap="round"/>
<path d="M103.48 109.862C115.343 109.862 124.96 100.282 124.96 88.4653C124.96 76.6484 115.343 67.069 103.48 67.069C91.617 67.069 82 76.6484 82 88.4653C82 100.282 91.617 109.862 103.48 109.862Z" stroke="#4D2C5E" stroke-opacity="0.1" stroke-width="4" stroke-miterlimit="10" stroke-linecap="round" stroke-linejoin="round"/>
<path d="M133.59 130.999C138.334 130.999 142.18 127.168 142.18 122.442C142.18 117.717 138.334 113.886 133.59 113.886C128.846 113.886 125 117.717 125 122.442C125 127.168 128.846 130.999 133.59 130.999Z" stroke="#4D2C5E" stroke-opacity="0.1" stroke-width="4" stroke-miterlimit="10" stroke-linecap="round" stroke-linejoin="round"/>
<path d="M1677 348.294C1677 469.373 1593.43 560.819 1498 560.819C1402.57 560.819 1319 469.373 1319 348.294C1319 227.216 1402.57 135.77 1498 135.77C1593.43 135.77 1677 227.216 1677 348.294Z" stroke="#1890FF" stroke-opacity="0.3" stroke-width="50"/>
</svg>
