<svg width="42" height="24" viewBox="0 0 42 24" fill="none" xmlns="http://www.w3.org/2000/svg">
<rect width="42" height="24" fill="white" fill-opacity="0.01"/>
<g clip-path="url(#clip0_41_297)">
<path d="M21.6529 14.3032L19.7479 12.4207L19.7704 12.3982C21.0754 10.9432 22.0054 9.27073 22.5529 7.50073H24.7504V6.00073H19.5004V4.50073H18.0004V6.00073H12.7504V7.49323H21.1279C20.6254 8.94073 19.8304 10.3132 18.7504 11.5132C18.0529 10.7407 17.4754 9.89323 17.0179 9.00073H15.5179C16.0654 10.2232 16.8154 11.3782 17.7529 12.4207L13.9354 16.1857L15.0004 17.2507L18.7504 13.5007L21.0829 15.8332L21.6529 14.3032ZM25.8754 10.5007H24.3754L21.0004 19.5007H22.5004L23.3404 17.2507H26.9029L27.7504 19.5007H29.2504L25.8754 10.5007ZM23.9104 15.7507L25.1254 12.5032L26.3404 15.7507H23.9104Z" fill="black" fill-opacity="0.85"/>
</g>
<defs>
<clipPath id="clip0_41_297">
<rect width="18" height="18" fill="white" transform="translate(12 3)"/>
</clipPath>
</defs>
</svg>
