<svg width="16" height="17" viewBox="0 0 16 17" fill="none" xmlns="http://www.w3.org/2000/svg">
<path d="M13.7163 7.6482H12.5021V3.6482C12.5021 2.3857 11.4788 1.36249 10.2163 1.36249H5.78777C4.52527 1.36249 3.50205 2.3857 3.50205 3.6482V7.6482H2.28777C1.9717 7.6482 1.71634 7.90356 1.71634 8.21963V15.0768C1.71634 15.3928 1.9717 15.6482 2.28777 15.6482H13.7163C14.0324 15.6482 14.2878 15.3928 14.2878 15.0768V8.21963C14.2878 7.90356 14.0324 7.6482 13.7163 7.6482ZM4.78777 3.6482C4.78777 3.09642 5.23598 2.6482 5.78777 2.6482H10.2163C10.7681 2.6482 11.2163 3.09642 11.2163 3.6482V7.6482H4.78777V3.6482ZM13.0021 14.3625H3.00205V8.93392H13.0021V14.3625ZM7.50205 11.8803V12.8268C7.50205 12.9053 7.56634 12.9696 7.64491 12.9696H8.3592C8.43777 12.9696 8.50205 12.9053 8.50205 12.8268V11.8803C8.64946 11.7745 8.75948 11.6246 8.81629 11.4523C8.87309 11.28 8.87375 11.094 8.81816 10.9213C8.76257 10.7486 8.65361 10.5979 8.50695 10.4911C8.3603 10.3842 8.18352 10.3266 8.00205 10.3266C7.82059 10.3266 7.64381 10.3842 7.49716 10.4911C7.3505 10.5979 7.24154 10.7486 7.18595 10.9213C7.13036 11.094 7.13102 11.28 7.18782 11.4523C7.24463 11.6246 7.35465 11.7745 7.50205 11.8803V11.8803Z" fill="#1890FF"/>
</svg>
