<svg width="16" height="17" viewBox="0 0 16 17" fill="none" xmlns="http://www.w3.org/2000/svg">
<path d="M14.189 12.9939C13.8521 12.196 13.3633 11.4712 12.7497 10.8599C12.138 10.2469 11.4133 9.75816 10.6158 9.42065C10.6086 9.41708 10.6015 9.41529 10.5943 9.41172C11.7068 8.60815 12.4301 7.29922 12.4301 5.82243C12.4301 3.376 10.4479 1.39386 8.00149 1.39386C5.55506 1.39386 3.57291 3.376 3.57291 5.82243C3.57291 7.29922 4.29613 8.60815 5.40863 9.4135C5.40148 9.41708 5.39434 9.41886 5.3872 9.42243C4.5872 9.75993 3.86934 10.2439 3.25327 10.8617C2.64025 11.4734 2.15149 12.1981 1.81399 12.9956C1.48242 13.7765 1.3036 14.6136 1.2872 15.4617C1.28672 15.4808 1.29007 15.4997 1.29703 15.5175C1.304 15.5352 1.31444 15.5514 1.32776 15.5651C1.34107 15.5787 1.35698 15.5895 1.37455 15.5969C1.39212 15.6043 1.41099 15.6082 1.43006 15.6081H2.50149C2.58006 15.6081 2.64256 15.5456 2.64434 15.4689C2.68006 14.0903 3.23363 12.7992 4.2122 11.8206C5.2247 10.8081 6.56934 10.251 8.00149 10.251C9.43363 10.251 10.7783 10.8081 11.7908 11.8206C12.7693 12.7992 13.3229 14.0903 13.3586 15.4689C13.3604 15.5474 13.4229 15.6081 13.5015 15.6081H14.5729C14.592 15.6082 14.6109 15.6043 14.6284 15.5969C14.646 15.5895 14.6619 15.5787 14.6752 15.5651C14.6885 15.5514 14.699 15.5352 14.7059 15.5175C14.7129 15.4997 14.7162 15.4808 14.7158 15.4617C14.6979 14.6081 14.5211 13.7778 14.189 12.9939ZM8.00149 8.89386C7.18184 8.89386 6.41041 8.57422 5.83006 7.99386C5.2497 7.4135 4.93006 6.64208 4.93006 5.82243C4.93006 5.00279 5.2497 4.23136 5.83006 3.651C6.41041 3.07065 7.18184 2.751 8.00149 2.751C8.82113 2.751 9.59256 3.07065 10.1729 3.651C10.7533 4.23136 11.0729 5.00279 11.0729 5.82243C11.0729 6.64208 10.7533 7.4135 10.1729 7.99386C9.59256 8.57422 8.82113 8.89386 8.00149 8.89386Z" fill="#1890FF"/>
</svg>
